<svg xmlns="http://www.w3.org/2000/svg" xmlns:xlink="http://www.w3.org/1999/xlink"><defs><clipPath id="aa2"><path fill="#fff" d="M0 0h143.5v44H0z"/></clipPath><linearGradient id="bb1" x1="23.673" y1="9.581" x2="5.226" y2="27.407" gradientUnits="userSpaceOnUse"><stop stop-color="#00A0FF"/><stop offset=".01" stop-color="#00A1FF"/><stop offset=".26" stop-color="#00BEFF"/><stop offset=".51" stop-color="#00D2FF"/><stop offset=".76" stop-color="#00DFFF"/><stop offset="1" stop-color="#00E3FF"/></linearGradient><linearGradient id="cc1" x1="36.46" y1="22" x2="10.747" y2="22" gradientUnits="userSpaceOnUse"><stop stop-color="#FFE000"/><stop offset=".41" stop-color="#FFBD00"/><stop offset=".78" stop-color="orange"/><stop offset="1" stop-color="#FF9C00"/></linearGradient><linearGradient id="dd1" x1="26.893" y1="24.53" x2="1.872" y2="48.698" gradientUnits="userSpaceOnUse"><stop stop-color="#FF3A44"/><stop offset="1" stop-color="#C31162"/></linearGradient><linearGradient id="ee1" x1="8.259" y1=".198" x2="19.429" y2="10.992" gradientUnits="userSpaceOnUse"><stop stop-color="#32A071"/><stop offset=".07" stop-color="#2DA771"/><stop offset=".48" stop-color="#15CF74"/><stop offset=".8" stop-color="#06E775"/><stop offset="1" stop-color="#00F076"/></linearGradient><clipPath id="aa1"><path fill="#fff" transform="translate(.5)" d="M0 0h143.5v44H0z"/></clipPath><clipPath id="m"><path fill="#fff" transform="translate(0 .5)" d="M0 0h21v21H0z"/></clipPath><clipPath id="pp"><path fill="#fff" d="M0 0h156v27.273H0z"/></clipPath><clipPath id="b"><path fill="#fff" transform="translate(0 .532)" d="M0 0h15v24.937H0z"/></clipPath><clipPath id="g"><path fill="#fff" transform="translate(0 .543)" d="M0 0h24v24H0z"/></clipPath><clipPath id="a"><path fill="#fff" transform="translate(0 -9)" d="M0 0h128v971H0z"/></clipPath><clipPath id="a"><path fill="#fff" transform="translate(0 -46)" d="M0 0h126v640H0z"/></clipPath></defs><symbol id="icon-animation-left-1"><circle cx="62.85" cy="62.85" r="62.85" fill="#FDAA32"/></symbol><symbol id="icon-animation-left-2"><path fill-rule="evenodd" clip-rule="evenodd" d="M0 .41C.006 69.822 56.277 126.09 125.69 126.09c69.412 0 125.683-56.267 125.689-125.679H0z" fill="#34A5DD"/></symbol><symbol id="icon-animation-left-3"><circle cx="125.69" cy="125.758" r="125.69" fill="#34A5DD"/></symbol><symbol id="icon-animation-left-4"><path fill-rule="evenodd" clip-rule="evenodd" d="M.72 251.448c0 69.351 55.727 125.583 124.511 125.69h.392l.786-.004V125.758h-.016C126.393 56.408 70.666.176 1.882.069h-.393c-.262 0-.524.002-.785.004v125.686h.015v125.689z" fill="#3C9486"/></symbol><symbol id="icon-animation-left-5"><path d="M121.816 53.93L72.208 4.322c-5.165-5.165-13.561-5.165-18.726 0L3.874 53.93c-5.165 5.165-5.165 13.561 0 18.726l49.608 49.608c5.165 5.165 13.561 5.165 18.726 0l49.608-49.608c5.165-5.18 5.165-13.561 0-18.726z" fill="#AF4399"/></symbol><symbol id="icon-animation-left-6"><path fill-rule="evenodd" clip-rule="evenodd" d="M124.7 251.514C55.739 250.982 0 194.915 0 125.828 0 56.412 56.273.138 125.689.138c69.417 0 125.69 56.274 125.69 125.69v125.69H124.7v-.004z" fill="#EF5739"/></symbol><symbol id="icon-animation-right-1"><path fill-rule="evenodd" clip-rule="evenodd" d="M0 0h.038C69.294.02 125.46 55.611 125.7 124.274v.888l-.003.538H0V0zm0 125.7v125.7c69.274 0 125.459-55.598 125.7-124.274v-.887l-.003-.539H0z" fill="#FDAA32"/></symbol><symbol id="icon-animation-right-2"><path fill-rule="evenodd" clip-rule="evenodd" d="M125.714.963c.328 0 .655 0 .982.003v125.696h-.001v.001c0 69.284-55.616 125.476-124.308 125.699h-.819l-.572-.003V126.662C.996 57.24 56.835.962 125.714.962z" fill="#3C9486"/></symbol><symbol id="icon-animation-right-3"><circle cx="63.817" cy="63.813" r="62.85" fill="#34A5DD"/></symbol><symbol id="icon-animation-right-4"><path fill-rule="evenodd" clip-rule="evenodd" d="M126.667 63.813v62.849H64.04l-.11.001h-.113l-.224-.001H.967v-62.85c0-34.71 28.139-62.85 62.85-62.85 34.71 0 62.85 28.14 62.85 62.85zm0 188.55v-125.7H.967v125.7h.001V315.213c0 34.711 28.14 62.849 62.85 62.849 34.711 0 62.85-28.138 62.85-62.849V252.363h-.001z" fill="#0079C2"/></symbol><symbol id="icon-animation-right-5"><path fill-rule="evenodd" clip-rule="evenodd" d="M0 126.68h125.7V.983c-.179-.002-.359-.003-.538-.003h-.888C55.599 1.22 0 57.406 0 126.679v.001z" fill="#FDAA32"/></symbol><symbol id="icon-animation-right-6"><path fill-rule="evenodd" clip-rule="evenodd" d="M124.7 251.514C55.739 250.982 0 194.915 0 125.828 0 56.412 56.273.138 125.689.138c69.417 0 125.69 56.274 125.69 125.69v125.69H124.7v-.004z" fill="#EF5739"/></symbol><symbol id="icon-animation-right-7"><circle r="62.85" transform="matrix(1 0 0 -1 62.85 63.84)" fill="#AF4399"/></symbol><symbol id="icon-app-store" viewBox="0 0 144 44"><g clip-path="url(#aa2)"><path d="M9.214 43.998c-.37 0-.732-.005-1.1-.013a16.317 16.317 0 01-2.275-.187 7.454 7.454 0 01-2.016-.63 6.58 6.58 0 01-1.7-1.17 6.151 6.151 0 01-1.242-1.606 6.332 6.332 0 01-.66-1.906 13.517 13.517 0 01-.203-2.157C.01 36.086 0 35.279 0 35.279V8.707s.01-.796.018-1.03c.01-.72.076-1.44.201-2.153a6.37 6.37 0 01.662-1.911 6.208 6.208 0 011.235-1.608A6.77 6.77 0 013.823.828 7.377 7.377 0 015.835.203C6.589.086 7.352.023 8.117.014L9.215 0H134.28l1.111.015a15.93 15.93 0 012.262.187 7.523 7.523 0 012.033.63 6.63 6.63 0 012.939 2.783 6.36 6.36 0 01.651 1.897c.127.718.197 1.443.212 2.17.003.327.003.677.003 1.025.01.431.01.842.01 1.256v24.073c0 .418 0 .826-.01 1.237 0 .374 0 .717-.004 1.07a14 14 0 01-.208 2.131 6.388 6.388 0 01-.657 1.921 6.344 6.344 0 01-1.236 1.594 6.612 6.612 0 01-1.703 1.176 7.43 7.43 0 01-2.03.633c-.753.116-1.513.179-2.275.187-.356.008-.73.013-1.092.013l-1.319.002-123.752-.002z" fill="#000"/><path d="M29.15 22.344c.014-.96.284-1.902.787-2.736a5.858 5.858 0 012.088-2.04 6.076 6.076 0 00-2.123-1.784 6.472 6.472 0 00-2.745-.698c-2.049-.203-4.035 1.156-5.079 1.156-1.064 0-2.671-1.136-4.402-1.102a6.773 6.773 0 00-3.167.89 6.29 6.29 0 00-2.29 2.247C9.86 22.13 11.62 27.79 13.88 30.904c1.13 1.525 2.452 3.227 4.181 3.167 1.692-.066 2.325-1.017 4.367-1.017 2.023 0 2.616 1.017 4.38.979 1.816-.028 2.96-1.532 4.052-3.07a12.33 12.33 0 001.852-3.558 5.77 5.77 0 01-2.589-2.024 5.28 5.28 0 01-.972-3.036zm-3.332-9.306a5.396 5.396 0 001.36-4.015c-1.513.15-2.91.832-3.913 1.91a5.269 5.269 0 00-1.106 1.802 5.05 5.05 0 00-.29 2.064 5.257 5.257 0 002.19-.452 4.966 4.966 0 001.759-1.309zM50.54 30.21h-5.773l-1.387 3.86h-2.446l5.47-14.283h2.54l5.47 14.284h-2.488l-1.385-3.861zm-5.175-1.782h4.577l-2.257-6.266h-.063l-2.257 6.266zm20.861.436c0 3.236-1.837 5.315-4.61 5.315a3.93 3.93 0 01-2.014-.44 3.645 3.645 0 01-1.46-1.382h-.053v5.158h-2.267V23.656h2.195v1.732h.041a3.82 3.82 0 011.49-1.378 4.11 4.11 0 012.027-.463c2.803 0 4.651 2.09 4.651 5.317zm-2.33 0c0-2.109-1.156-3.495-2.919-3.495-1.732 0-2.897 1.416-2.897 3.495 0 2.098 1.165 3.503 2.897 3.503 1.763 0 2.919-1.376 2.919-3.503zm14.486 0c0 3.236-1.837 5.315-4.609 5.315a3.93 3.93 0 01-2.015-.44 3.644 3.644 0 01-1.46-1.382h-.052v5.158h-2.267V23.656h2.194v1.732h.042a3.82 3.82 0 011.488-1.378 4.11 4.11 0 012.028-.463c2.804 0 4.651 2.09 4.651 5.317zm-2.33 0c0-2.109-1.155-3.495-2.919-3.495-1.732 0-2.897 1.416-2.897 3.495 0 2.098 1.165 3.503 2.897 3.503 1.764 0 2.92-1.376 2.92-3.503zm10.364 1.226c.168 1.417 1.627 2.347 3.622 2.347 1.91 0 3.285-.93 3.285-2.207 0-1.109-.829-1.772-2.792-2.227l-1.964-.446c-2.781-.634-4.073-1.86-4.073-3.851 0-2.465 2.278-4.157 5.513-4.157 3.2 0 5.395 1.692 5.469 4.157h-2.289c-.137-1.425-1.386-2.286-3.213-2.286-1.826 0-3.076.87-3.076 2.138 0 1.01.799 1.604 2.751 2.059l1.67.386c3.107.693 4.399 1.87 4.399 3.96 0 2.672-2.258 4.346-5.848 4.346-3.36 0-5.628-1.635-5.775-4.218h2.32zm14.195-8.898v2.465h2.101v1.693h-2.101v5.741c0 .892.421 1.307 1.344 1.307.249-.004.498-.02.746-.049v1.683a6.586 6.586 0 01-1.259.099c-2.236 0-3.109-.792-3.109-2.812v-5.97h-1.605v-1.692h1.605v-2.465h2.278zm3.316 7.672c0-3.277 2.047-5.336 5.238-5.336 3.203 0 5.24 2.06 5.24 5.336 0 3.286-2.027 5.335-5.24 5.335-3.211 0-5.238-2.05-5.238-5.335zm8.168 0c0-2.248-1.093-3.575-2.93-3.575-1.837 0-2.928 1.337-2.928 3.575 0 2.256 1.091 3.573 2.928 3.573s2.93-1.316 2.93-3.573zm4.179-5.208h2.163v1.773h.052c.146-.554.49-1.043.974-1.386a2.746 2.746 0 011.683-.496c.261 0 .522.026.777.08v2a3.355 3.355 0 00-1.019-.13 2.413 2.413 0 00-.963.16 2.303 2.303 0 00-.803.526 2.136 2.136 0 00-.497.793 2.027 2.027 0 00-.099.917v6.177h-2.268V23.656zm16.101 7.356c-.305 1.89-2.257 3.188-4.756 3.188-3.213 0-5.207-2.03-5.207-5.287 0-3.266 2.005-5.385 5.112-5.385 3.056 0 4.977 1.98 4.977 5.137v.732h-7.8v.13a2.57 2.57 0 00.149 1.132c.134.364.349.696.63.975a2.89 2.89 0 001 .643 3.03 3.03 0 001.192.2 2.621 2.621 0 001.533-.334 2.4 2.4 0 001.017-1.131h2.153zm-7.664-3.109h5.522c.02-.344-.035-.69-.163-1.013a2.484 2.484 0 00-.579-.866 2.66 2.66 0 00-.899-.576 2.796 2.796 0 00-1.068-.188 2.947 2.947 0 00-1.077.197 2.814 2.814 0 00-.913.572 2.623 2.623 0 00-.61.86 2.509 2.509 0 00-.213 1.014zM43.753 11.937h.973a1.278 1.278 0 00.94-.263 1.118 1.118 0 00.433-.831c0-.633-.505-1.042-1.362-1.042a1.374 1.374 0 00-.514.03 1.331 1.331 0 00-.461.216 1.25 1.25 0 00-.336.367c-.085.143-.139.3-.158.462h-1.069c.019-.294.101-.582.243-.846a2.18 2.18 0 01.58-.685c.242-.188.521-.328.822-.41.301-.081.617-.104.927-.066 1.434 0 2.443.757 2.443 1.846.003.364-.126.72-.367 1.005a1.7 1.7 0 01-.956.564v.081c.448.019.87.204 1.173.515.303.311.464.723.446 1.145a2.2 2.2 0 01-.285.865 2.333 2.333 0 01-.62.694 2.49 2.49 0 01-.855.413 2.576 2.576 0 01-.958.069 2.56 2.56 0 01-.963-.06 2.477 2.477 0 01-.861-.409 2.322 2.322 0 01-.624-.694 2.19 2.19 0 01-.286-.868h1.085c.065.656.705 1.08 1.649 1.08.943 0 1.56-.476 1.56-1.147 0-.68-.581-1.099-1.595-1.099h-1.004v-.932zm4.99 2.498c0-.933.738-1.47 2.043-1.546l1.488-.081v-.447c0-.547-.382-.856-1.124-.856-.606 0-1.024.21-1.145.575h-1.05c.111-.89 1-1.46 2.246-1.46 1.377 0 2.154.647 2.154 1.74v3.54H52.31v-.728h-.086a1.812 1.812 0 01-.708.617c-.29.143-.615.21-.942.196-.23.023-.463 0-.684-.068a1.688 1.688 0 01-.596-.324 1.574 1.574 0 01-.406-.524 1.49 1.49 0 01-.145-.634zm3.531-.443v-.433l-1.341.081c-.757.048-1.1.29-1.1.747 0 .466.429.738 1.019.738.173.016.347 0 .513-.049a1.32 1.32 0 00.453-.233 1.26 1.26 0 00.32-.382c.078-.146.125-.305.136-.469zm3.958-2.412v4.32h-1.084v-5.18h3.617v.86h-2.533zm9.103 1.727c0 1.646-.883 2.678-2.27 2.678a1.88 1.88 0 01-.98-.202 1.743 1.743 0 01-.71-.668h-.086v2.507h-1.084V10.72h1.044v.856h.08c.168-.292.418-.534.722-.7a2 2 0 011.004-.242c1.397 0 2.28 1.027 2.28 2.673zm-1.115 0c0-1.094-.55-1.755-1.468-1.755-.912 0-1.483.675-1.483 1.76 0 1.08.57 1.755 1.478 1.755.924 0 1.473-.66 1.473-1.76zm2.56 4.447v-.88c.117.014.235.02.353.02a.98.98 0 00.644-.183.88.88 0 00.35-.54l.08-.253-1.988-5.198h1.18l1.378 4.114h.086l1.372-4.114h1.15l-2.048 5.393c-.47 1.26-.989 1.665-2.109 1.665-.09 0-.347-.01-.449-.024zm5.449-3.324h1.08c.105.456.56.694 1.194.694.722 0 1.165-.3 1.165-.766 0-.5-.398-.737-1.165-.737h-.822v-.795h.808c.655 0 .989-.237.989-.67 0-.38-.323-.67-.99-.67-.605 0-1.049.242-1.119.65h-1.045c.078-.469.349-.891.754-1.175a2.013 2.013 0 011.41-.341c1.307 0 2.054.556 2.054 1.431.006.244-.077.482-.235.675-.158.193-.381.33-.633.386v.08c.3.037.575.176.773.39.198.216.305.491.302.776 0 .985-.889 1.636-2.246 1.636-1.2 0-2.174-.518-2.274-1.565zm6.081 1.47v-5.18h1.075v3.562h.086l2.531-3.563h1.075v5.18h-1.075v-3.582h-.08L79.384 15.9H78.31zm10.687-4.32h-1.73v4.319h-1.085v-4.32h-1.73v-.86h4.545v.86zm5.839 2.92a2.118 2.118 0 01-.903 1.157 2.338 2.338 0 01-1.479.342 2.627 2.627 0 01-1.053-.192 2.494 2.494 0 01-.872-.59 2.32 2.32 0 01-.527-.883 2.223 2.223 0 01-.085-1.008 2.258 2.258 0 01.087-1.012 2.34 2.34 0 01.524-.886 2.53 2.53 0 01.868-.601c.331-.14.69-.21 1.054-.207 1.528 0 2.451.984 2.451 2.61v.357h-3.879v.058a1.3 1.3 0 00.075.562c.066.18.17.345.309.485.137.14.304.25.49.326.186.075.387.113.59.11.259.03.521-.014.754-.126.232-.112.424-.287.551-.502h1.045zm-3.814-1.669h2.774a1.183 1.183 0 00-.074-.512 1.239 1.239 0 00-.287-.44 1.33 1.33 0 00-.451-.294c-.17-.067-.354-.1-.54-.096a1.478 1.478 0 00-.547.098 1.413 1.413 0 00-.464.29 1.32 1.32 0 00-.308.438c-.07.164-.105.34-.103.516zm8.41-2.111h2.477c1.074 0 1.705.513 1.705 1.316a1.08 1.08 0 01-.259.703 1.196 1.196 0 01-.669.392v.08c.32.02.621.154.84.376.218.223.338.515.334.819 0 .903-.72 1.493-1.926 1.493h-2.502v-5.18zm1.075.784v1.341h1.074c.656 0 .969-.237.969-.675 0-.404-.273-.666-.848-.666h-1.195zm0 2.093v1.517h1.285c.641 0 .984-.266.984-.756 0-.519-.388-.761-1.12-.761h-1.149z" fill="#fff"/></g></symbol><symbol id="icon-audiobooks" viewBox="0 0 27 26"><path d="M23.373 6.265H4.529" stroke="currentColor" stroke-width="2.127" stroke-linecap="round" stroke-linejoin="round"/><path clip-rule="evenodd" d="M23.373 23.81H6.803a2.924 2.924 0 01-2.924-2.924V5.291a2.924 2.924 0 012.924-2.924h16.57V23.81z" stroke="currentColor" stroke-width="2.127" stroke-linecap="round" stroke-linejoin="round"/><path clip-rule="evenodd" d="M16.55 17.474c0 1.346-1.309 2.437-2.924 2.437s-2.924-1.09-2.924-2.437c0-1.346 1.309-2.436 2.924-2.436s2.924 1.09 2.924 2.436z" stroke="currentColor" stroke-width="2.127" stroke-linecap="round" stroke-linejoin="round"/><path d="M16.55 10.164v7.31" stroke="currentColor" stroke-width="2.127" stroke-linecap="round" stroke-linejoin="round"/></symbol><symbol id="icon-cross" viewBox="0 0 22 22"><path d="M21.707 1.707A1 1 0 0020.293.293l1.414 1.414zM.293 20.293a1 1 0 101.414 1.414L.293 20.293zm1.414-20A1 1 0 00.293 1.707L1.707.293zm18.586 21.414a1 1 0 001.414-1.414l-1.414 1.414zm0-21.414l-20 20 1.414 1.414 20-20L20.293.293zm-20 1.414l20 20 1.414-1.414-20-20L.293 1.707z" fill="#46556B"/></symbol><symbol id="icon-google-play" viewBox="0 0 144 44"><g clip-path="url(#aa1)"><path d="M138.685 0H5.815C2.88 0 .5 2.462.5 5.5v33c0 3.038 2.38 5.5 5.315 5.5h132.87c2.935 0 5.315-2.462 5.315-5.5v-33c0-3.038-2.38-5.5-5.315-5.5z" fill="#000"/><path d="M72.93 23.925a4.42 4.42 0 00-2.514.796 4.656 4.656 0 00-1.663 2.107c-.34.857-.428 1.8-.251 2.708.177.908.61 1.742 1.244 2.396a4.481 4.481 0 002.322 1.277 4.395 4.395 0 002.615-.273 4.567 4.567 0 002.029-1.731c.496-.772.76-1.678.757-2.605a4.75 4.75 0 00-.328-1.805 4.623 4.623 0 00-.983-1.529 4.445 4.445 0 00-1.482-1.01 4.32 4.32 0 00-1.746-.331zm0 7.513a2.669 2.669 0 01-1.572-.38 2.803 2.803 0 01-1.094-1.228 2.927 2.927 0 01-.236-1.652 2.88 2.88 0 01.703-1.504 2.723 2.723 0 011.398-.834 2.656 2.656 0 011.61.124c.513.208.953.57 1.263 1.04.311.47.478 1.026.48 1.596.016.36-.037.721-.156 1.06-.12.34-.304.651-.542.916a2.62 2.62 0 01-.843.625 2.542 2.542 0 01-1.01.237zm-9.907-7.513a4.42 4.42 0 00-2.514.796 4.656 4.656 0 00-1.663 2.107c-.34.857-.428 1.8-.251 2.708a4.74 4.74 0 001.245 2.396 4.481 4.481 0 002.321 1.277c.879.178 1.79.083 2.616-.273a4.567 4.567 0 002.028-1.731c.496-.772.76-1.678.757-2.605a4.75 4.75 0 00-.328-1.805 4.623 4.623 0 00-.983-1.529 4.445 4.445 0 00-1.482-1.01 4.32 4.32 0 00-1.746-.331zm0 7.513a2.669 2.669 0 01-1.572-.38 2.803 2.803 0 01-1.094-1.228 2.927 2.927 0 01-.236-1.652 2.879 2.879 0 01.703-1.504 2.723 2.723 0 011.399-.834 2.655 2.655 0 011.61.124c.512.208.952.57 1.263 1.04.31.47.477 1.026.478 1.596a2.767 2.767 0 01-.697 1.976 2.62 2.62 0 01-.842.625 2.542 2.542 0 01-1.012.237zm-11.777-6.072v1.98h4.592a4.217 4.217 0 01-1.063 2.497 4.69 4.69 0 01-1.627 1.116 4.556 4.556 0 01-1.924.336 5.017 5.017 0 01-3.607-1.547 5.375 5.375 0 01-1.495-3.733c0-1.4.538-2.744 1.495-3.734a5.017 5.017 0 013.608-1.546c1.297-.02 2.55.49 3.486 1.419l1.35-1.397a6.678 6.678 0 00-2.213-1.504 6.497 6.497 0 00-2.602-.498 6.813 6.813 0 00-2.772.47 7 7 0 00-2.372 1.555 7.282 7.282 0 00-1.594 2.393 7.49 7.49 0 000 5.695c.37.9.912 1.714 1.594 2.393a7 7 0 002.372 1.555 6.813 6.813 0 002.772.47 6.259 6.259 0 002.66-.475 6.445 6.445 0 002.24-1.56 6.736 6.736 0 001.658-4.653 7.127 7.127 0 00-.096-1.232h-6.462zm48.163 1.54a4.396 4.396 0 00-1.487-2.113 4.162 4.162 0 00-2.383-.868 4.128 4.128 0 00-1.69.359 4.254 4.254 0 00-1.414 1.025 4.427 4.427 0 00-.903 1.522 4.541 4.541 0 00-.245 1.769 4.764 4.764 0 00.87 2.794 4.503 4.503 0 002.313 1.7 4.353 4.353 0 002.836-.073 4.524 4.524 0 002.23-1.814l-1.541-1.1a2.62 2.62 0 01-.946.95c-.39.225-.83.341-1.276.337a2.22 2.22 0 01-1.307-.359 2.345 2.345 0 01-.882-1.06l6.048-2.585-.223-.484zm-6.166 1.562a2.657 2.657 0 01.131-1.008 2.59 2.59 0 01.499-.877c.22-.255.488-.462.787-.609.299-.146.623-.23.954-.245.342-.022.683.062.98.24.297.178.537.442.689.76l-4.04 1.739zM88.333 33h1.987V19.25h-1.987V33zm-3.253-8.03h-.075a3.134 3.134 0 00-1.074-.82 3.036 3.036 0 00-1.307-.28 4.464 4.464 0 00-3.059 1.448 4.775 4.775 0 00-1.25 3.232c0 1.204.448 2.361 1.25 3.232a4.464 4.464 0 003.06 1.449c.45.01.897-.085 1.309-.275.411-.19.777-.472 1.071-.825h.075v.67c0 1.794-.925 2.75-2.413 2.75a2.453 2.453 0 01-1.387-.47 2.585 2.585 0 01-.898-1.19l-1.723.737a4.375 4.375 0 001.588 2.03 4.15 4.15 0 002.42.742c2.328 0 4.252-1.42 4.252-4.873V24.2h-1.84v.77zm-2.286 6.468a2.705 2.705 0 01-1.828-.89 2.892 2.892 0 01-.743-1.943c0-.722.266-1.417.743-1.943a2.705 2.705 0 011.828-.89 2.502 2.502 0 011.791.883c.226.263.399.572.508.906.108.334.151.687.125 1.039.029.352-.011.708-.119 1.044a2.64 2.64 0 01-.506.911 2.54 2.54 0 01-.812.632 2.45 2.45 0 01-.987.25zM108.72 19.25h-4.762V33h1.988v-5.214h2.774a4.006 4.006 0 001.671-.233 4.112 4.112 0 001.443-.903c.415-.4.747-.885.974-1.424a4.42 4.42 0 000-3.416 4.297 4.297 0 00-.974-1.424 4.113 4.113 0 00-1.443-.904 4.006 4.006 0 00-1.671-.232zm0 6.6h-2.774v-4.686h2.817c.298 0 .594.06.87.179.276.118.527.292.738.51a2.412 2.412 0 01.666 1.665 2.412 2.412 0 01-.666 1.664 2.269 2.269 0 01-.738.51c-.276.119-.572.18-.87.18l-.043-.022zm12.267-1.97a3.609 3.609 0 00-2.074.502 3.788 3.788 0 00-1.466 1.6l1.754.759a1.92 1.92 0 01.766-.779 1.838 1.838 0 011.052-.222 1.852 1.852 0 011.421.424c.198.165.362.369.483.6.121.231.196.485.222.747v.132a4.326 4.326 0 00-2.073-.528c-1.892 0-3.827 1.1-3.827 3.102.019.425.12.843.298 1.227.177.384.428.728.736 1.01.308.282.668.497 1.059.632.39.136.802.189 1.213.156.499.028.996-.08 1.44-.317a2.86 2.86 0 001.09-1.025h.064V33h1.913v-5.291c0-2.41-1.765-3.806-4.029-3.806l-.042-.022zm-.245 7.536c-.648 0-1.552-.341-1.552-1.166 0-1.1 1.127-1.474 2.126-1.474a3.431 3.431 0 011.807.462 2.512 2.512 0 01-.77 1.554c-.43.404-.987.634-1.568.646l-.043-.022zm11.289-7.216l-2.275 5.962h-.064l-2.359-5.962h-2.126l3.539 8.338-2.019 4.63h2.072l5.443-12.968h-2.211zM114.173 33h1.977V19.25h-1.977V33z" fill="#fff"/><path d="M11.597 8.294a2.25 2.25 0 00-.5 1.54v24.332a2.182 2.182 0 00.5 1.54l.075.088 13.17-13.629v-.33L11.672 8.217l-.075.077z" fill="url(#bb1)"/><path d="M29.2 26.708l-4.358-4.543v-.33l4.358-4.543.096.066 5.219 3.058c1.488.869 1.488 2.299 0 3.179l-5.198 3.058-.117.055z" fill="url(#cc1)"/><path d="M29.327 26.642L24.842 22 11.597 35.706c.3.277.685.436 1.087.45.402.014.796-.118 1.114-.373l15.53-9.14" fill="url(#dd1)"/><path d="M29.327 17.358l-15.53-9.13a1.674 1.674 0 00-1.111-.381 1.68 1.68 0 00-1.089.447L24.842 22l4.485-4.642z" fill="url(#ee1)"/><path opacity=".2" d="M29.2 26.543l-15.402 9.075a1.73 1.73 0 01-1.063.368c-.384 0-.757-.13-1.063-.368l-.075.077.075.088c.306.239.679.368 1.063.368.383 0 .756-.13 1.063-.368l15.53-9.141-.128-.1z" fill="#000"/><path opacity=".12" d="M11.597 35.552A2.252 2.252 0 0111.13 34v.165a2.182 2.182 0 00.5 1.54l.074-.077-.107-.077zM34.514 23.43L29.2 26.543l.095.1 5.22-3.059a1.87 1.87 0 00.773-.632c.198-.278.32-.607.353-.952a2.076 2.076 0 01-.398.854 1.986 1.986 0 01-.729.576z" fill="#000"/><path opacity=".25" d="M13.798 8.382L34.515 20.57c.283.13.532.327.728.576.196.248.332.54.399.854a1.965 1.965 0 00-.353-.953 1.872 1.872 0 00-.774-.631L13.798 8.228c-1.477-.88-2.7-.154-2.7 1.606v.165c.032-1.76 1.223-2.486 2.7-1.617z" fill="#fff"/><path d="M45.261 15.697h-.776v-2.2h.66c.296-.333.519-.729.653-1.16.134-.431.176-.887.122-1.337V7.7h4.252v5.786h.712v2.2h-.786V14.3H45.26v1.397zM46.74 11a4.52 4.52 0 01-.606 2.519h3.189V8.514H46.74V11zm10.533 2.442a3.29 3.29 0 01-1.07.742 3.2 3.2 0 01-2.527 0 3.291 3.291 0 01-1.07-.742A3.597 3.597 0 0151.66 11c0-.91.34-1.785.947-2.442a3.29 3.29 0 011.07-.741 3.2 3.2 0 012.526 0c.4.172.765.424 1.07.741a3.4 3.4 0 01.712 1.122c.163.42.242.868.235 1.32a3.4 3.4 0 01-.228 1.323 3.31 3.31 0 01-.718 1.12zm-4.072-.55c.224.24.494.431.792.56.298.129.618.193.941.188a2.26 2.26 0 00.943-.185c.298-.129.567-.32.79-.563A2.849 2.849 0 0057.38 11c0-.7-.255-1.376-.713-1.892a2.327 2.327 0 00-.79-.563 2.26 2.26 0 00-.943-.185 2.29 2.29 0 00-.941.188c-.298.129-.568.32-.791.56A2.883 2.883 0 0052.498 11c0 .699.25 1.373.703 1.892zm9.142 1.551a3.095 3.095 0 01-1.255-.245 3.185 3.185 0 01-1.062-.734A3.631 3.631 0 0159.07 11c0-.918.343-1.8.956-2.464a3.183 3.183 0 011.081-.744 3.094 3.094 0 011.279-.235c.445-.013.887.08 1.292.27s.763.474 1.046.83l-.563.572a2.14 2.14 0 00-.788-.647 2.064 2.064 0 00-.987-.2 2.32 2.32 0 00-.956.179 2.389 2.389 0 00-.809.558c-.458.52-.711 1.199-.711 1.903s.253 1.382.711 1.903c.23.241.505.43.809.558.303.127.629.187.956.179a2.442 2.442 0 001.05-.273c.327-.17.614-.41.842-.706l.574.583a3.207 3.207 0 01-1.063.858 3.192 3.192 0 01-1.446.319zm5.847-.143h-.82V8.514h-1.785V7.7h4.38v.814h-1.776V14.3zm7.408-6.6l-2.413 5.566c-.058.223-.163.43-.306.608a1.55 1.55 0 01-.526.418 1.498 1.498 0 01-1.294.008l.213-.781c.13.076.276.117.425.121a.746.746 0 00.447-.121 1 1 0 00.287-.418l.234-.528L70.538 7.7h.967l1.573 3.784L74.631 7.7h.967zm.925 6.6V7.7h4.613v6.6h-.818V8.514H77.34V14.3h-.818zm6.07 0V7.7h.818v2.827h3.19V7.7h.828v6.6H86.6v-2.981h-3.189v2.98h-.818zm11.512-.858a3.3 3.3 0 01-1.073.742 3.21 3.21 0 01-2.532 0 3.3 3.3 0 01-1.072-.742A3.597 3.597 0 0188.48 11c0-.91.34-1.785.948-2.442a3.29 3.29 0 011.07-.741 3.2 3.2 0 012.526 0c.4.172.764.424 1.07.741.603.66.94 1.534.94 2.442a3.62 3.62 0 01-.94 2.442h.01zm-4.072-.55c.223.242.492.434.79.563.299.129.62.192.943.185.323.005.643-.06.941-.188a2.36 2.36 0 00.792-.56A2.882 2.882 0 0094.201 11c0-.699-.25-1.373-.702-1.892a2.359 2.359 0 00-.792-.56 2.29 2.29 0 00-.94-.188 2.26 2.26 0 00-.943.185 2.32 2.32 0 00-.79.563A2.849 2.849 0 0089.32 11c0 .701.255 1.376.713 1.892zm8.355 1.408V7.7h2.307a1.88 1.88 0 011.297.506 1.697 1.697 0 01.552 1.287c.003.296-.078.587-.233.836a1.51 1.51 0 01-.628.539c.307.109.577.307.776.572.196.27.3.598.298.935a1.79 1.79 0 01-.142.737c-.1.232-.247.439-.432.605a1.91 1.91 0 01-1.361.539l-2.434.044zm.819-3.773h1.488a.896.896 0 00.407-.071.93.93 0 00.337-.248 1.01 1.01 0 00.287-.693 1.046 1.046 0 00-.245-.715.877.877 0 00-.712-.308h-1.53l-.032 2.035zm0 2.959h1.658a.97.97 0 00.765-.341 1.12 1.12 0 00.287-.748 1.117 1.117 0 00-.297-.737 1.072 1.072 0 00-.364-.258 1.031 1.031 0 00-.434-.083h-1.615v2.167z" fill="#fff" stroke="#fff" stroke-width=".411" stroke-miterlimit="10"/></g></symbol><symbol id="icon-half-round"><circle fill="#176FB2" cx="63.5" cy="64.5" r="63.5" fill-rule="evenodd"/></symbol><symbol id="icon-instagram" viewBox="0 0 21 22"><g clip-path="url(#m)" fill="#fff"><path d="M10.517 5.559c-3.023 0-5.482 2.423-5.482 5.402s2.46 5.402 5.482 5.402c3.022 0 5.481-2.423 5.481-5.402S13.54 5.56 10.517 5.56zm0 8.815c-1.922 0-3.485-1.531-3.485-3.413s1.563-3.413 3.485-3.413c1.921 0 3.485 1.531 3.485 3.413s-1.564 3.413-3.485 3.413z"/><path d="M14.955.5h-8.91C2.712.5 0 3.2 0 6.521v8.958c0 3.32 2.711 6.021 6.045 6.021h8.91C18.29 21.5 21 18.799 21 15.479V6.52C21 3.201 18.289.5 14.955.5zM19 15.479c0 2.221-1.815 4.028-4.045 4.028h-8.91C3.815 19.507 2 17.7 2 15.48V6.52C2 4.3 3.815 2.493 6.045 2.493h8.91C17.185 2.493 19 4.3 19 6.52v8.958z"/><path d="M16.096 6.624c.713 0 1.29-.575 1.29-1.285s-.577-1.284-1.29-1.284c-.712 0-1.29.575-1.29 1.284 0 .71.578 1.285 1.29 1.285z"/></g></symbol><symbol id="icon-logo" viewBox="0 0 195 28"><g clip-path="url(#pp)"><path fill-rule="evenodd" clip-rule="evenodd" d="M27.45 13.636h.22a2.52 2.52 0 012.526 2.509v8.618a2.519 2.519 0 01-2.525 2.508h-.44a2.519 2.519 0 01-2.524-2.508v-.218h-2.745a1.374 1.374 0 01-1.268-.84L18.76 19.09h-7.32l-1.936 4.616c-.213.51-.714.84-1.268.84H5.49v.235a2.503 2.503 0 01-2.508 2.493H2.51A2.504 2.504 0 010 24.78v-8.652a2.503 2.503 0 012.509-2.492h.237v-1.363C2.746 5.505 8.287 0 15.098 0c6.81 0 12.352 5.505 12.352 12.273v1.363zm-12.352-3.272l-2.517 6h5.034l-2.517-6zm1.266-4.07l6.512 15.524h1.83v-9.545c0-5.265-4.31-9.546-9.608-9.546-5.299 0-9.608 4.282-9.608 9.546v9.545h1.829l1.937-4.617.002-.008 4.571-10.9c.213-.508.713-.839 1.268-.839s1.054.332 1.267.84zm133.731 15.611c-1.793 0-3.274-.579-4.438-1.736-1.133-1.173-1.7-2.666-1.7-4.48 0-1.971.299-3.503.897-4.598.582-1.079 1.794-2.072 3.636-2.98a22.623 22.623 0 01.802-.375l.357-.16.163-.075c.662-.297 1.07-.484 1.229-.563.093-.046.369-.218.826-.516.55-.392.921-.946 1.111-1.665l2.077 1.196c-.079.86-.623 1.65-1.629 2.369-.173.156-.495.343-.967.563l-1.015.469-1.181.492c-1.023.406-1.778.821-2.267 1.243a3.292 3.292 0 00-1.015 1.619c.945-1.063 2.227-1.595 3.848-1.595 1.384 0 2.589.492 3.612 1.477 1.039.986 1.559 2.26 1.559 3.823 0 1.595-.551 2.909-1.652 3.94-1.09 1.035-2.505 1.552-4.253 1.552zm-.024-2.37c.992 0 1.802-.293 2.432-.88.629-.586.945-1.332.945-2.24 0-.921-.311-1.68-.932-2.275-.621-.594-1.427-.891-2.419-.891-.882 0-1.676.281-2.384.845-.709.532-1.062 1.267-1.062 2.204 0 .938.33 1.713.991 2.323.658.61 1.469.914 2.429.914zm-99.325 2.064h2.927L47.7 5.18h-3.258L38.445 21.6h2.951l1.157-3.307h7.036l1.157 3.307zm-7.296-5.84l2.621-7.412 2.62 7.412h-5.24zM62.291 9.87l-3.021 8.54-3.588-8.54h-2.715l4.958 11.635-.072.164c-.582 1.596-1.63 2.347-3.14 2.252v2.37c1.306.077 2.455-.252 3.447-.986.992-.735 1.763-1.846 2.314-3.331L65.007 9.87h-2.716zm13.528 0v9.336h1.582v5.535H74.9v-3.143h-8.1v3.143h-2.5v-5.535h1.44c.724-1.001 1.086-2.417 1.086-4.246V9.87h8.994zm-7.272 9.337h4.77v-7.015h-3.99v2.768c-.001 1.69-.26 3.105-.78 4.247zM87.552 9.87l-6.044 7.436V9.87h-2.502V21.6h1.959l6.043-7.46v7.46h2.503V9.871h-1.96zm10.011 12.033c-1.747 0-3.218-.594-4.414-1.782-1.213-1.204-1.819-2.666-1.819-4.386 0-1.72.606-3.183 1.819-4.386 1.196-1.188 2.667-1.783 4.415-1.783 1.747 0 3.218.595 4.414 1.783 1.212 1.205 1.818 2.667 1.818 4.386 0 1.72-.606 3.182-1.818 4.386-1.196 1.187-2.667 1.782-4.414 1.782zm-3.682-6.17c0 1.065.353 1.948 1.062 2.65.708.705 1.582 1.056 2.62 1.056 1.04 0 1.913-.351 2.621-1.055.709-.704 1.062-1.587 1.062-2.65s-.355-1.947-1.062-2.65c-.708-.705-1.582-1.056-2.62-1.056-1.04 0-1.913.351-2.621 1.055-.707.704-1.062 1.588-1.062 2.65zm24.39 5.865l-6.919-8.42 6.681-8h-3.234l-6.281 7.367V5.18h-2.715V21.6h2.715v-7.812l6.517 7.811h3.236zm2.526-11.729h9.042V21.6h-2.55v-9.29h-3.942v4.364c0 1.83-.402 3.144-1.204 3.94-.802.799-1.976 1.127-3.518.986v-2.37c.724.125 1.267-.027 1.629-.457.363-.43.543-1.169.543-2.216V9.87zm19.973 0l-3.022 8.539-3.587-8.538h-2.716l4.958 11.635-.071.164c-.582 1.596-1.63 2.347-3.141 2.252v2.37c1.307.077 2.456-.252 3.448-.986.992-.735 1.763-1.846 2.314-3.331l4.533-12.105h-2.716z" fill="#fff"/><path d="M27.67 13.636h-.22v-1.363C27.45 5.505 21.91 0 15.098 0 8.288 0 2.746 5.505 2.746 12.273v1.363h-.237A2.503 2.503 0 000 16.128v8.652a2.504 2.504 0 002.509 2.493h.473A2.503 2.503 0 005.49 24.78v-.235h2.745c.554 0 1.055-.33 1.268-.84l1.935-4.616h7.32l1.936 4.616c.214.508.713.84 1.268.84h2.745v.218a2.519 2.519 0 002.525 2.508h.44a2.519 2.519 0 002.524-2.508v-8.618a2.52 2.52 0 00-2.526-2.509zm-15.089 2.728l2.517-6 2.517 6H12.58zm10.295 5.454L16.364 6.294a1.374 1.374 0 00-1.267-.84c-.555 0-1.055.33-1.268.84l-4.57 10.9a.018.018 0 00-.003.007l-1.937 4.617h-1.83v-9.545c0-5.264 4.31-9.546 9.609-9.546s9.608 4.281 9.608 9.546v9.545h-1.83z" fill="#0158E3"/><path d="M27.67 13.636h-.22v-1.363C27.45 5.505 21.91 0 15.098 0 8.288 0 2.746 5.505 2.746 12.273v1.363h-.237A2.503 2.503 0 000 16.128v8.652a2.504 2.504 0 002.509 2.493h.473A2.503 2.503 0 005.49 24.78v-.235h2.745c.554 0 1.055-.33 1.268-.84l1.935-4.616h7.32l1.936 4.616c.214.508.713.84 1.268.84h2.745v.218a2.519 2.519 0 002.525 2.508h.44a2.519 2.519 0 002.524-2.508v-8.618a2.52 2.52 0 00-2.526-2.509zm-15.089 2.728l2.517-6 2.517 6H12.58zm10.295 5.454L16.364 6.294a1.374 1.374 0 00-1.267-.84c-.555 0-1.055.33-1.268.84l-4.57 10.9a.018.018 0 00-.003.007l-1.937 4.617h-1.83v-9.545c0-5.264 4.31-9.546 9.609-9.546s9.608 4.281 9.608 9.546v9.545h-1.83z" fill="#0158E3"/></g><path d="M168.933 4.832c.999 0 1.848.355 2.548 1.064.71.71 1.064 1.577 1.064 2.604 0 1.027-.354 1.895-1.064 2.604a3.446 3.446 0 01-2.548 1.064c-1.241 0-2.184-.513-2.828-1.54V12h-.924V2.2h.924v4.172c.644-1.027 1.587-1.54 2.828-1.54zm-2.03 5.642c.532.532 1.186.798 1.96.798.775 0 1.428-.266 1.96-.798.532-.55.798-1.209.798-1.974 0-.775-.266-1.428-.798-1.96-.532-.541-1.185-.812-1.96-.812-.774 0-1.428.27-1.96.812-.532.532-.798 1.185-.798 1.96 0 .765.266 1.423.798 1.974zm10.413-5.642c1.045 0 1.88.369 2.506 1.106.644.728.966 1.591.966 2.59 0 .047-.01.191-.028.434h-6.146c.093.7.392 1.26.896 1.68.504.42 1.134.63 1.89.63 1.064 0 1.815-.397 2.254-1.19l.812.476a3.27 3.27 0 01-1.274 1.19c-.532.28-1.134.42-1.806.42-1.102 0-1.998-.345-2.688-1.036-.691-.69-1.036-1.568-1.036-2.632 0-1.055.34-1.927 1.022-2.618.681-.7 1.558-1.05 2.632-1.05zm0 .896c-.728 0-1.34.215-1.834.644-.486.43-.775.994-.868 1.694h5.222c-.103-.747-.388-1.32-.854-1.722a2.508 2.508 0 00-1.666-.616zM185.762 5v.896h-2.016v4.242c0 .383.075.658.224.826.15.159.374.243.672.252.299 0 .672-.01 1.12-.028V12c-.998.15-1.74.08-2.226-.21-.476-.299-.714-.85-.714-1.652V5.896h-1.47V5h1.47V3.32l.924-.28V5h2.016zm7.136 1.372V5h.924v7h-.924v-1.372c-.644 1.027-1.586 1.54-2.828 1.54-.998 0-1.852-.355-2.562-1.064-.7-.71-1.05-1.577-1.05-2.604 0-1.027.35-1.895 1.05-2.604a3.492 3.492 0 012.562-1.064c1.242 0 2.184.513 2.828 1.54zm-4.718 4.102c.532.532 1.186.798 1.96.798.775 0 1.428-.266 1.96-.798.532-.55.798-1.209.798-1.974 0-.775-.266-1.428-.798-1.96-.532-.541-1.185-.812-1.96-.812-.774 0-1.428.27-1.96.812-.532.532-.798 1.185-.798 1.96 0 .765.266 1.423.798 1.974z" fill="#34A5DD"/></symbol><symbol id="icon-music" viewBox="0 0 27 26"><path d="M10.265 9.81l14.887-2.127" stroke="currentColor" stroke-width="1.823" stroke-linecap="round" stroke-linejoin="round"/><path clip-rule="evenodd" d="M10.265 21.506c0 1.762-1.904 3.19-4.253 3.19s-4.253-1.428-4.253-3.19 1.904-3.19 4.253-3.19 4.253 1.428 4.253 3.19zm14.887-3.19c0 1.762-1.905 3.19-4.254 3.19-2.348 0-4.253-1.428-4.253-3.19s1.905-3.19 4.253-3.19c2.35 0 4.254 1.428 4.254 3.19z" stroke="currentColor" stroke-width="1.823" stroke-linecap="round" stroke-linejoin="round"/><path d="M10.265 21.506V4.949c0-1.058.778-1.956 1.826-2.105l10.633-1.519a2.126 2.126 0 012.428 2.104v14.887" stroke="currentColor" stroke-width="1.823" stroke-linecap="round" stroke-linejoin="round"/></symbol><symbol id="icon-ok" viewBox="0 0 15 26"><g clip-path="url(#b)"><path d="M7.5 13.155A6.311 6.311 0 107.5.532a6.311 6.311 0 000 12.623zm0-9.417a3.105 3.105 0 110 6.21 3.105 3.105 0 010-6.21zm7.275 10.187c-.356-.716-1.343-1.312-2.654-.278-1.773 1.397-4.62 1.397-4.62 1.397s-2.849 0-4.621-1.397c-1.312-1.034-2.299-.438-2.655.278-.621 1.248.08 1.85 1.664 2.867 1.353.869 3.212 1.193 4.413 1.315L5.3 19.109l-3.72 3.719a1.447 1.447 0 000 2.047l.171.17a1.447 1.447 0 002.047 0l3.719-3.719 3.72 3.72a1.447 1.447 0 002.046 0l.17-.171a1.447 1.447 0 000-2.047l-3.719-3.72-1.005-1.004c1.201-.124 3.04-.45 4.382-1.311 1.584-1.017 2.286-1.62 1.664-2.868z" fill="#fff"/></g></symbol><symbol id="icon-podcasts" viewBox="0 0 26 26"><path d="M8.763 10.873h2.126m4.254 0h2.126M8.763 7.152h2.126m4.254 0h2.126m3.721 3.988v1.913c0 4.221-3.577 7.656-7.974 7.656S5.04 17.274 5.04 13.053V11.14m7.976 12.493v-2.658" stroke="currentColor" stroke-width="2.127" stroke-linecap="round" stroke-linejoin="round"/><path clip-rule="evenodd" d="M13.016 16.19v0c-2.349 0-4.253-1.769-4.253-3.95V6.316c0-2.18 1.904-3.95 4.253-3.95s4.253 1.77 4.253 3.95v5.924c0 2.181-1.904 3.95-4.253 3.95z" stroke="currentColor" stroke-width="2.127" stroke-linecap="round" stroke-linejoin="round"/></symbol><symbol id="icon-radio" viewBox="0 0 24 25"><g clip-path="url(#g)"><path d="M14 12.043v4m-8-4v4m4-6v8m-6-16.5l14.5 4.5" stroke="currentColor" stroke-width="2" stroke-linecap="round" stroke-linejoin="round"/><path clip-rule="evenodd" d="M20.182 22.043H3.818C2.814 22.043 2 21.2 2 20.161V7.925c0-1.039.814-1.882 1.818-1.882h16.364c1.003 0 1.818.843 1.818 1.882v12.236c0 1.039-.815 1.882-1.818 1.882z" stroke="currentColor" stroke-width="2" stroke-linecap="round" stroke-linejoin="round"/><circle cx="18.5" cy="13.543" r="1" fill="currentColor"/><circle cx="18.5" cy="10.543" r="1" fill="currentColor"/></g></symbol><symbol id="icon-tariff-card-base-desktop" viewBox="0 0 126 510"><path fill-rule="evenodd" clip-rule="evenodd" d="M125.723 307.758h-.002c0 69.365-55.752 125.607-124.556 125.689H.861c-.277 0-.553-.001-.83-.003V307.758h.002c0-69.365 55.752-125.607 124.556-125.69h.304l.83.004v125.686z" fill="#EF5739"/><circle r="62.845" transform="matrix(1 0 0 -1 62.86 497.845)" fill="#FDAA32"/><path fill-rule="evenodd" clip-rule="evenodd" d="M8.32-168.901l46.048-24.048c5.243-2.735 11.71-2.735 16.954 0l46.048 24.048c5.144 2.691 8.32 7.627 8.32 12.963v298.944c0 5.336-3.16 10.273-8.32 12.963l-46.048 24.049c-5.244 2.734-11.71 2.734-16.954 0L8.32 155.969C3.176 153.279 0 148.342 0 143.006v-298.944c0-5.336 3.176-10.272 8.32-12.963z" fill="#0079C2"/><path d="M8.32 82.478L54.368 58.43c5.243-2.735 11.71-2.735 16.954 0l46.048 24.048c5.144 2.69 8.32 7.627 8.32 12.963v47.565c0 5.336-3.16 10.273-8.32 12.963l-46.048 24.049c-5.244 2.734-11.71 2.734-16.954 0L8.32 155.969C3.176 153.279 0 148.342 0 143.006V95.441c0-5.336 3.176-10.273 8.32-12.963z" fill="#34A5DD"/></symbol><symbol id="icon-tariff-card-free-desktop" viewBox="0 0 127 510"><g clip-path="url(#a)"><path fill-rule="evenodd" clip-rule="evenodd" d="M127.667 394.813v188.549H1.967v-188.55c0-34.71 28.139-62.849 62.85-62.849 34.71 0 62.85 28.139 62.85 62.849v.001zM1.968 646.212v-62.849h62.626l.224-.001h.052l.172.001h62.626v62.85c0 34.711-28.139 62.849-62.85 62.849-34.71 0-62.85-28.138-62.85-62.849v-.001z" fill="#0079C2"/><circle cx="64.817" cy="394.813" r="62.85" fill="#34A5DD"/><path fill-rule="evenodd" clip-rule="evenodd" d="M1.41 206.689v125.687l.786.003h.393C71.372 332.272 127.1 276.04 127.1 206.69V81.004a121.14 121.14 0 00-.786-.004h-.392C57.138 81.107 1.41 137.339 1.41 206.689z" fill="#3C9486"/><path d="M122.816 8.482L73.208-41.126c-5.165-5.165-13.561-5.165-18.726 0L4.874 8.481c-5.165 5.165-5.165 13.561 0 18.726l49.608 49.608c5.165 5.165 13.561 5.165 18.726 0l49.608-49.608c5.165-5.18 5.165-13.561 0-18.726z" fill="#AF4399"/></g></symbol><symbol id="icon-tariff-card-vip-desktop" viewBox="0 0 126 510"><g clip-path="url(#a)"><path fill-rule="evenodd" clip-rule="evenodd" d="M126.084 593.379H.394V342.004c.262-.002.524-.004.786-.004h.393c68.784.107 124.511 56.339 124.511 125.69v125.689z" fill="#EF5739"/><path d="M63.85 51.718l54.792 27.389c3.696 1.847 8.058-.843 8.058-4.982v-114.55c0-4.139-4.361-6.83-8.058-4.982L63.85-18.017 9.058-45.408C5.362-47.254 1-44.564 1-40.426V74.126c0 4.139 4.362 6.83 8.058 4.981L63.85 51.718z" fill="#AF4399"/><circle cx="126.69" cy="216.69" r="125.69" fill="#FDAA32"/></g></symbol><symbol id="icon-vk" viewBox="0 0 34 34"><path d="M25.327 20.215c-.503-.48-.821-.802-.955-.968-.244-.314-.299-.632-.165-.954.094-.244.448-.76 1.061-1.546.322-.416.578-.75.767-1.003 1.36-1.809 1.95-2.964 1.77-3.467l-.072-.118c-.047-.071-.17-.136-.366-.195-.196-.059-.448-.069-.754-.03l-3.397.025a.972.972 0 00-.39.04l-.006.004-.053.026-.047.036a.52.52 0 00-.13.124.794.794 0 00-.118.206 19.24 19.24 0 01-1.262 2.654c-.29.488-.558.911-.802 1.268a6.033 6.033 0 01-.613.79 4.311 4.311 0 01-.448.407c-.134.103-.236.146-.306.13a6.158 6.158 0 01-.201-.047.778.778 0 01-.266-.29 1.297 1.297 0 01-.136-.46 5.017 5.017 0 01-.04-.477 9.215 9.215 0 01.005-.566c.008-.244.012-.409.012-.495 0-.3.006-.624.018-.974.012-.35.021-.627.03-.831.007-.204.011-.42.011-.649 0-.228-.014-.407-.041-.537a1.87 1.87 0 00-.124-.377.634.634 0 00-.242-.283 1.368 1.368 0 00-.395-.16c-.417-.094-.948-.144-1.593-.153-1.462-.015-2.402.08-2.819.284a1.594 1.594 0 00-.448.354c-.142.173-.161.267-.059.282.472.071.806.24 1.002.508l.071.141c.055.103.11.284.166.543.054.26.09.546.106.861a9.17 9.17 0 010 1.475c-.04.408-.077.727-.112.954a1.91 1.91 0 01-.16.555 2.322 2.322 0 01-.141.26.21.21 0 01-.06.059.882.882 0 01-.318.059c-.11 0-.244-.055-.4-.166a2.79 2.79 0 01-.49-.454 6.051 6.051 0 01-.573-.808 14.016 14.016 0 01-.66-1.226l-.189-.343c-.118-.22-.28-.54-.483-.961a18.49 18.49 0 01-.543-1.221.781.781 0 00-.283-.378l-.06-.035a.798.798 0 00-.188-.1 1.265 1.265 0 00-.271-.077l-3.232.024c-.33 0-.555.074-.673.224l-.047.07a.381.381 0 00-.035.19c0 .086.023.192.07.318a38.903 38.903 0 001.54 3.208 36.275 36.275 0 001.445 2.489c.409.63.826 1.223 1.25 1.781.425.559.706.916.844 1.073.137.158.246.276.324.354l.295.284c.188.188.466.414.832.678.365.263.77.523 1.214.778.444.256.962.464 1.551.625.59.162 1.164.227 1.722.195h1.357c.275-.024.483-.11.625-.26l.047-.059a.793.793 0 00.089-.218c.027-.098.041-.206.041-.324a3.864 3.864 0 01.077-.914c.059-.271.125-.476.2-.614a1.51 1.51 0 01.455-.519.943.943 0 01.094-.041c.189-.063.41-.002.667.183.255.185.495.413.72.684.223.271.493.576.807.914.315.338.59.59.826.755l.236.142c.157.094.361.18.614.26.251.078.471.098.66.058l3.02-.047c.299 0 .53-.05.696-.148.165-.098.263-.206.294-.324a.92.92 0 00.006-.401 1.472 1.472 0 00-.082-.312 1.559 1.559 0 00-.077-.148c-.393-.708-1.144-1.577-2.253-2.607l-.024-.023-.011-.012-.012-.012h-.012z" fill="#fff"/></symbol></svg>